<?xml version="1.0" encoding="utf-8"?>
<!-- Generator: Adobe Illustrator 22.0.0, SVG Export Plug-In . SVG Version: 6.00 Build 0)  -->
<svg version="1.1" id="Layer_1" focusable="false" xmlns="http://www.w3.org/2000/svg" xmlns:xlink="http://www.w3.org/1999/xlink"
	 x="0px" y="0px" viewBox="0 0 448 512" style="enable-background:new 0 0 448 512;" xml:space="preserve">
<style type="text/css">
	.st0{fill:#636466;}
</style>
<path class="st0" d="M400,480H48c-26.5,0-48-21.5-48-48V80c0-26.5,21.5-48,48-48h352c26.5,0,48,21.5,48,48v352
	C448,458.5,426.5,480,400,480z M238.1,177.9L102.4,313.6l-6.3,57.1c-0.8,7.6,5.6,14.1,13.3,13.3l57.1-6.3L302.2,242
	c2.3-2.3,2.3-6.1,0-8.5L246.7,178C244.2,175.6,240.4,175.6,238.1,177.9L238.1,177.9z M345,165.1L314.9,135c-9.4-9.4-24.6-9.4-33.9,0
	l-23.1,23.1c-2.3,2.3-2.3,6.1,0,8.5l55.5,55.5c2.3,2.3,6.1,2.3,8.5,0L345,199C354.3,189.7,354.3,174.5,345,165.1z"/>
</svg>
